<svg xmlns="http://www.w3.org/2000/svg" width="30" height="26" viewBox="0 0 30 26" fill="none"><path d="M29.5232 25.1837C29.5775 25.1837 29.6324 25.1743 29.6853 25.1547C29.8813 25.0825 30.006 24.8898 29.991 24.6812C29.9792 24.5158 28.6119 8.27404 10.7286 6.88044L10.7718 0.759506C10.7732 0.567319 10.6564 0.393412 10.4778 0.321694C10.2997 0.249975 10.0949 0.294037 9.96222 0.434662L0.119875 10.8493C-0.0507507 11.0298 -0.0507507 11.312 0.119406 11.4925L10.0232 22.0004C10.1553 22.1415 10.3611 22.1861 10.5392 22.1139C10.7183 22.0422 10.835 21.8678 10.8332 21.6742L10.7764 15.7089C22.8078 16.5733 29.083 24.9076 29.1458 24.9925C29.2363 25.1153 29.3774 25.1837 29.5232 25.1837ZM9.82581 1.94404L9.78737 7.31451C9.7855 7.56294 9.97816 7.77013 10.2266 7.7856C24.6219 8.69591 28.0457 19.1809 28.8317 23.2075C26.4683 20.7184 20.2138 15.2734 10.3283 14.7414C10.2003 14.7334 10.0724 14.7812 9.97909 14.8708C9.88581 14.9603 9.83285 15.0845 9.83425 15.2139L9.88394 20.4854L1.10472 11.1709L9.82581 1.94404Z" fill="white"></path></svg>